<?xml version="1.0" encoding="UTF-8"?>
<svg id="Layer_2" data-name="Layer 2" xmlns="http://www.w3.org/2000/svg" viewBox="0 0 159.77 652.85">
  <defs>
    <style>
      .cls-1 {
        fill: none;
        stroke: #231f20;
        stroke-miterlimit: 10;
      }
    </style>
  </defs>
  <g id="Layer_1-2" data-name="Layer 1">
    <path class="cls-1" d="M74.55,0c-.08,6.11-1.16,15-6.33,23.73-2.65,4.47-5.59,7.59-9.96,12.22-11.14,11.81-14.84,11.69-17.68,18.26-2.54,5.87-3.44,15.41,2.01,20.1,3.58,3.08,9.52,3.75,13.67,1.12,7.2-4.57,6.64-17.63,2.2-20.3-3.32-2-9.5,1.4-12.95,5.21-8.99,9.92-7.7,31.73,2.2,38.49,13.31,9.09,37.17-12.42,45.34-3.62,3.1,3.34,2.28,9.27,1.23,16.87-.42,3.01-1.92,11.74-8.42,21.55-8.55,12.91-15.81,12.71-17.81,22.08-1.19,5.58-.31,13.59,4.53,16.28,3.2,1.78,8.3,1.34,10.43-1.71,2.66-3.83-.17-10.6-4.21-12.46-5.24-2.41-12.85,3.26-14.9,9.36,0,0-2.16,6.45,3.37,15.42,10.85,17.62,27.93,23.24,29.82,37.44,1.45,10.86-7.46,22.14-11.74,27.57-6.3,7.98-10.48,8.71-13.18,15.76-3.15,8.26-2.77,21.28,4.55,24.91,7.98,3.96,21.56-4.55,21.16-10.08-.36-4.84-11.6-9.93-16.21-6.72-6.09,4.24,5.27,18.87-1.38,33.02-6.52,13.86-22.62,10.9-27.68,23.73-4.14,10.5,1.51,25.54,10.87,33.61,17.98,15.5,44.18.58,52.2,13.05,5.08,7.9-.07,22.25-9.09,29.26-12.09,9.4-31.86,6.19-35.39-1.58-2-4.4.69-11.41,5.54-14.24,6.62-3.86,14.89,1.43,15.42,1.78,9.16,6.04,5.62,15.83,12.85,22.74,8.4,8.02,26.02,7.06,37.76-.59,15.15-9.87,20.48-30.86,13.44-45.67-8.52-17.94-31.52-19.12-44.29-19.77-8.32-.43-24.33-1.25-37.76,9.69-10.96,8.92-14.27,20.82-16.01,27.09-1.04,3.73-7.47,28.14,4.35,49.43,18.82,33.9,65.74,27.12,71.77,54.17,1.7,7.64-.4,15.54-4.75,20.36-10.37,11.51-37.06,9.45-43.89-3.76-7.12-13.74,10.81-32.72,11.86-33.81,17.41-18.02,49.8-22.65,58.72-11.07,2.13,2.76,3.13,6.72-5.54,36.18-10.19,34.65-15.5,52.06-25.9,56.35-10.57,4.36-18.18-2.34-31.44,5.14-3.63,2.05-11.94,6.74-12.26,13.44-.54,11.47,22.87,18.08,20.96,26.49-.72,3.17-4.71,5.13-7.51,5.54-4.82.7-10.01-2.59-11.27-6.52-2.11-6.59,6.3-16.62,15.22-17.2,9.79-.63,18.29,10.25,18.39,19.57.13,12.38-14.57,19.59-19.38,21.95-12.58,6.17-24.7,4.46-26.69,4.15-28.35-4.39-34.69-33.69-51.41-31.24-10.84,1.59-20.75,15.76-18.59,26.3,1.93,9.43,13.16,14.18,15.62,15.22,5.12,2.17,8.4,1.95,32.23,2.17,8.89.09,13.33.13,14.04.2,8.41.83,20.34,4.15,34.4,15.82"/>
  </g>
</svg>